<mxfile host="app.diagrams.net" agent="Mozilla/5.0 (Windows NT 10.0; Win64; x64) AppleWebKit/537.36 (KHTML, like Gecko) Chrome/109.0.0.0 Safari/537.36" version="26.2.14">
  <diagram name="PÃ¡gina-1" id="_up4K_2JAigJpb2N40oH">
    <mxGraphModel dx="1019" dy="572" grid="1" gridSize="10" guides="1" tooltips="1" connect="1" arrows="1" fold="1" page="1" pageScale="1" pageWidth="827" pageHeight="1169" math="0" shadow="0">
      <root>
        <mxCell id="0" />
        <mxCell id="1" parent="0" />
        <mxCell id="dW7lY5t6IdyfGFGKEMIt-1" value="Cliente" style="shape=umlActor;verticalLabelPosition=bottom;verticalAlign=top;html=1;outlineConnect=0;" vertex="1" parent="1">
          <mxGeometry x="110" y="290" width="30" height="60" as="geometry" />
        </mxCell>
        <mxCell id="dW7lY5t6IdyfGFGKEMIt-2" value="Administrador" style="shape=umlActor;verticalLabelPosition=bottom;verticalAlign=top;html=1;outlineConnect=0;" vertex="1" parent="1">
          <mxGeometry x="750" y="290" width="30" height="60" as="geometry" />
        </mxCell>
        <mxCell id="dW7lY5t6IdyfGFGKEMIt-3" value="Navegar produtos" style="ellipse;whiteSpace=wrap;html=1;" vertex="1" parent="1">
          <mxGeometry x="370" y="130" width="120" height="80" as="geometry" />
        </mxCell>
        <mxCell id="dW7lY5t6IdyfGFGKEMIt-4" value="Adicionar ao carrinho" style="ellipse;whiteSpace=wrap;html=1;" vertex="1" parent="1">
          <mxGeometry x="370" y="260" width="120" height="80" as="geometry" />
        </mxCell>
        <mxCell id="dW7lY5t6IdyfGFGKEMIt-5" value="Realizar compra" style="ellipse;whiteSpace=wrap;html=1;" vertex="1" parent="1">
          <mxGeometry x="370" y="387" width="120" height="80" as="geometry" />
        </mxCell>
        <mxCell id="dW7lY5t6IdyfGFGKEMIt-6" value="Gerenciar pedidos" style="ellipse;whiteSpace=wrap;html=1;" vertex="1" parent="1">
          <mxGeometry x="370" y="510" width="120" height="80" as="geometry" />
        </mxCell>
        <mxCell id="dW7lY5t6IdyfGFGKEMIt-17" value="Sistema de Loja Virtual" style="text;html=1;align=center;verticalAlign=middle;whiteSpace=wrap;rounded=0;fontSize=15;fontStyle=0" vertex="1" parent="1">
          <mxGeometry x="234" y="50" width="360" height="30" as="geometry" />
        </mxCell>
        <mxCell id="dW7lY5t6IdyfGFGKEMIt-20" value="" style="endArrow=none;html=1;rounded=0;entryX=0.021;entryY=0.631;entryDx=0;entryDy=0;entryPerimeter=0;" edge="1" parent="1" target="dW7lY5t6IdyfGFGKEMIt-3">
          <mxGeometry width="50" height="50" relative="1" as="geometry">
            <mxPoint x="160" y="310" as="sourcePoint" />
            <mxPoint x="210" y="260" as="targetPoint" />
          </mxGeometry>
        </mxCell>
        <mxCell id="dW7lY5t6IdyfGFGKEMIt-21" value="" style="endArrow=none;html=1;rounded=0;entryX=0.011;entryY=0.635;entryDx=0;entryDy=0;entryPerimeter=0;" edge="1" parent="1" target="dW7lY5t6IdyfGFGKEMIt-4">
          <mxGeometry width="50" height="50" relative="1" as="geometry">
            <mxPoint x="160" y="330" as="sourcePoint" />
            <mxPoint x="370" y="310" as="targetPoint" />
          </mxGeometry>
        </mxCell>
        <mxCell id="dW7lY5t6IdyfGFGKEMIt-22" value="" style="endArrow=none;html=1;rounded=0;entryX=0;entryY=0.5;entryDx=0;entryDy=0;" edge="1" parent="1" target="dW7lY5t6IdyfGFGKEMIt-5">
          <mxGeometry width="50" height="50" relative="1" as="geometry">
            <mxPoint x="159" y="359" as="sourcePoint" />
            <mxPoint x="370" y="340" as="targetPoint" />
          </mxGeometry>
        </mxCell>
        <mxCell id="dW7lY5t6IdyfGFGKEMIt-24" value="" style="endArrow=none;html=1;rounded=0;exitX=0.994;exitY=0.559;exitDx=0;exitDy=0;exitPerimeter=0;" edge="1" parent="1" source="dW7lY5t6IdyfGFGKEMIt-6">
          <mxGeometry width="50" height="50" relative="1" as="geometry">
            <mxPoint x="520" y="272" as="sourcePoint" />
            <mxPoint x="740" y="340" as="targetPoint" />
          </mxGeometry>
        </mxCell>
        <mxCell id="dW7lY5t6IdyfGFGKEMIt-25" value="" style="endArrow=none;html=1;rounded=0;exitX=1;exitY=0.5;exitDx=0;exitDy=0;" edge="1" parent="1" source="dW7lY5t6IdyfGFGKEMIt-3">
          <mxGeometry width="50" height="50" relative="1" as="geometry">
            <mxPoint x="490" y="525" as="sourcePoint" />
            <mxPoint x="740" y="310" as="targetPoint" />
          </mxGeometry>
        </mxCell>
      </root>
    </mxGraphModel>
  </diagram>
</mxfile>
